<mxfile host="Electron" modified="2024-05-28T10:20:14.340Z" agent="Mozilla/5.0 (Macintosh; Intel Mac OS X 10_15_7) AppleWebKit/537.36 (KHTML, like Gecko) draw.io/24.4.8 Chrome/124.0.6367.207 Electron/30.0.6 Safari/537.36" etag="17OrqGCZ52LOi9yDdnJM" version="24.4.8" type="device">
  <diagram name="第 1 页" id="8azy1sw91_0OaJBktoCq">
    <mxGraphModel dx="901" dy="674" grid="1" gridSize="10" guides="1" tooltips="1" connect="1" arrows="1" fold="1" page="1" pageScale="1" pageWidth="827" pageHeight="1169" math="0" shadow="0">
      <root>
        <mxCell id="0" />
        <mxCell id="1" parent="0" />
        <mxCell id="f71OTM7_OVYxFX9ep2ym-1" value="&lt;span&gt;Java 8&lt;/span&gt;" style="rounded=1;whiteSpace=wrap;html=1;" vertex="1" parent="1">
          <mxGeometry x="200" y="80" width="120" height="60" as="geometry" />
        </mxCell>
        <mxCell id="f71OTM7_OVYxFX9ep2ym-2" value="Java 11" style="rounded=1;whiteSpace=wrap;html=1;" vertex="1" parent="1">
          <mxGeometry x="200" y="190" width="120" height="60" as="geometry" />
        </mxCell>
        <mxCell id="f71OTM7_OVYxFX9ep2ym-3" value="Java 17" style="rounded=1;whiteSpace=wrap;html=1;" vertex="1" parent="1">
          <mxGeometry x="200" y="310" width="120" height="60" as="geometry" />
        </mxCell>
        <mxCell id="f71OTM7_OVYxFX9ep2ym-4" value="2014" style="line;strokeWidth=2;html=1;" vertex="1" parent="1">
          <mxGeometry x="40" y="105" width="160" height="10" as="geometry" />
        </mxCell>
        <mxCell id="f71OTM7_OVYxFX9ep2ym-5" value="2018" style="line;strokeWidth=2;html=1;" vertex="1" parent="1">
          <mxGeometry x="40" y="215" width="160" height="10" as="geometry" />
        </mxCell>
        <mxCell id="f71OTM7_OVYxFX9ep2ym-6" value="2021" style="line;strokeWidth=2;html=1;" vertex="1" parent="1">
          <mxGeometry x="40" y="335" width="160" height="10" as="geometry" />
        </mxCell>
      </root>
    </mxGraphModel>
  </diagram>
</mxfile>
